<?xml version="1.0" standalone="no"?>
<!DOCTYPE svg PUBLIC "-//W3C//DTD SVG 20010904//EN"
 "http://www.w3.org/TR/2001/REC-SVG-20010904/DTD/svg10.dtd">
<svg version="1.0" xmlns="http://www.w3.org/2000/svg"
 width="256.000000pt" height="256.000000pt" viewBox="0 0 256.000000 256.000000"
 preserveAspectRatio="xMidYMid meet">

<g transform="translate(0.000000,256.000000) scale(0.100000,-0.100000)"
fill="#00FFC2" stroke="none">
<path d="M0 1280 l0 -1280 1280 0 1280 0 0 1280 0 1280 -1280 0 -1280 0 0
-1280z m2113 580 c53 -77 97 -144 97 -148 0 -4 -203 -119 -450 -257 l-450
-250 0 -327 0 -328 -120 0 -120 0 -2 327 -3 327 -355 198 c-209 116 -355 203
-354 211 2 20 173 249 184 245 5 -2 135 -106 290 -233 155 -126 286 -231 293
-232 7 -1 206 135 442 302 237 167 435 304 441 304 6 1 54 -62 107 -139z m107
-1225 l0 -95 -95 0 -95 0 0 95 0 95 95 0 95 0 0 -95z"/>
</g>
</svg>
